<svg xmlns="http://www.w3.org/2000/svg" xmlns:xlink="http://www.w3.org/1999/xlink" viewBox="0 0 256 256">
  <defs>
    <radialGradient id="radial-gradient" cx="99.49" cy="119.94" r="89.31" gradientTransform="translate(2.79 2.79) scale(0.97)" gradientUnits="userSpaceOnUse">
      <stop offset="0" stop-color="#fff"/>
      <stop offset="1"/>
    </radialGradient>
    <radialGradient id="radial-gradient-2" cx="56.88" cy="144.89" r="60.92" xlink:href="#radial-gradient"/>
    <radialGradient id="radial-gradient-3" cx="98.58" cy="121.04" r="86.68" xlink:href="#radial-gradient"/>
    <radialGradient id="radial-gradient-4" cx="99.88" cy="119.22" r="97.82" xlink:href="#radial-gradient"/>
    <radialGradient id="radial-gradient-5" cx="100.37" cy="119.51" r="106.86" xlink:href="#radial-gradient"/>
    <radialGradient id="radial-gradient-6" cx="100.17" cy="119.98" r="93.07" xlink:href="#radial-gradient"/>
    <radialGradient id="radial-gradient-7" cx="100.72" cy="119.69" r="98.71" xlink:href="#radial-gradient"/>
  </defs>
  <title>victor</title>
  <g style="isolation: isolate">
    <g id="ACR_1:1" data-name="ACR 1:1">
      <g id="ACube">
        <polyline id="Outer_Cube" data-name="Outer Cube" points="183.18 71.21 99.32 22.8 16 71.21 16.27 71.37 16 167.58 99.86 216 99.86 215.79 99.86 216 183.73 167.58 183.45 71.21" style="fill: #c1272d"/>
        <polyline id="Inner_Cube" data-name="Inner Cube" points="169.43 79.17 99.41 38.74 29.85 79.17 30.07 79.3 29.85 159.62 99.86 200.05 99.86 199.88 99.86 200.05 169.88 159.62 169.65 79.17" style="fill: #fff;opacity: 0.2"/>
        <g id="Right_Shine" data-name="Right Shine" style="opacity: 0.75;mix-blend-mode: screen">
          <g style="isolation: isolate">
            <polygon points="99.89 216 99.61 119.64 183.47 71.21 183.75 167.58 99.89 216" style="fill: none"/>
            <polyline points="183.47 71.21 99.61 119.64 99.89 216 183.75 167.58 183.47 71.21" style="fill: url(#radial-gradient)"/>
          </g>
        </g>
        <g id="Left_Shine" data-name="Left Shine" style="opacity: 0.75;mix-blend-mode: screen">
          <g style="isolation: isolate">
            <polygon points="16 167.58 16.27 71.21 100.14 119.63 99.86 216 16 167.58" style="fill: url(#radial-gradient-2)"/>
            <polyline points="100.14 119.63 16.27 71.21 16 167.58 99.86 216 100.14 119.63" style="fill: url(#radial-gradient-3)"/>
          </g>
        </g>
        <g id="Top_Shine" data-name="Top Shine" style="mix-blend-mode: screen">
          <g style="isolation: isolate">
            <polygon points="16.27 71.21 99.59 22.8 183.45 71.21 100.14 119.63 16.27 71.21" style="fill: url(#radial-gradient-4)"/>
            <polyline points="183.45 71.21 99.59 22.8 16.27 71.21 100.14 119.63 183.45 71.21" style="fill: url(#radial-gradient-5)"/>
          </g>
        </g>
        <g id="Front_Edge" data-name="Front Edge" style="mix-blend-mode: screen">
          <polygon points="101.38 215.28 101.38 117.43 98.9 117.43 98.9 215.28 100.14 216 101.38 215.28" style="fill: url(#radial-gradient-6)"/>
        </g>
        <g id="Top_Corner" data-name="Top Corner" style="mix-blend-mode: screen">
          <polygon points="99.89 116.76 18.3 69.66 16.02 70.98 99.89 119.4 183.2 70.98 180.93 69.66 99.89 116.76" style="fill: url(#radial-gradient-7)"/>
        </g>
      </g>
      <g>
        <polygon points="246 168.2 194.8 168.2 194.8 117 169.2 117 169.2 168.2 118 168.2 118 193.8 169.2 193.8 169.2 245 194.8 245 194.8 193.8 246 193.8 246 168.2" style="fill: #8cc63f"/>
        <polygon points="246 168.2 194.8 168.2 194.8 117 169.2 117 169.2 168.2 118 168.2 118 193.8 169.2 193.8 169.2 245 194.8 245 194.8 193.8 246 193.8 246 168.2" style="fill: none;stroke: #39b54a;stroke-width: 5px"/>
      </g>
    </g>
  </g>
</svg>